<?xml version="1.0" standalone="no"?>
<!DOCTYPE svg PUBLIC "-//W3C//DTD SVG 20010904//EN"
 "http://www.w3.org/TR/2001/REC-SVG-20010904/DTD/svg10.dtd">
<svg version="1.0" xmlns="http://www.w3.org/2000/svg"
 width="700.000000pt" height="700.000000pt" viewBox="0 0 700.000000 700.000000"
 preserveAspectRatio="xMidYMid meet">
<metadata>
Created by potrace 1.14, written by Peter Selinger 2001-2017
</metadata>
<g transform="translate(0.000000,700.000000) scale(0.100000,-0.100000)"
fill="#000000" stroke="none">
<path d="M3440 6633 c-47 -81 -87 -152 -89 -158 -2 -5 -22 -38 -43 -73 -21
-34 -38 -64 -38 -66 0 -1 -56 -101 -125 -221 -69 -120 -125 -220 -125 -222 0
-2 -16 -29 -35 -59 -19 -30 -35 -56 -35 -58 0 -3 -26 -49 -57 -103 -31 -54
-109 -190 -173 -303 -64 -113 -140 -245 -168 -294 -29 -49 -52 -90 -52 -91 0
-2 -47 -85 -105 -185 -58 -100 -105 -183 -105 -185 0 -3 -33 -61 -140 -245
-51 -88 -164 -286 -186 -325 -15 -27 -34 -62 -43 -77 -9 -15 -62 -107 -118
-205 -55 -98 -125 -218 -153 -268 -195 -336 -293 -703 -293 -1105 -1 -104 2
-149 19 -300 20 -175 112 -466 210 -662 175 -350 443 -651 769 -863 96 -63
168 -106 185 -110 3 -1 49 -23 102 -48 104 -50 139 -64 258 -101 154 -49 184
-56 335 -81 232 -37 499 -39 700 -5 99 17 121 22 200 41 301 76 555 196 810
383 149 109 327 285 442 436 244 323 390 700 438 1130 7 63 7 312 0 385 -4 46
-7 69 -21 165 -3 19 -10 55 -16 80 -5 25 -12 56 -14 70 -8 43 -65 221 -96 300
-40 102 -126 271 -182 358 -25 40 -46 74 -46 77 0 2 -15 28 -34 57 -18 29 -83
134 -143 233 -60 99 -228 374 -373 610 -283 463 -328 536 -439 720 -40 66 -83
136 -96 155 -12 19 -154 251 -315 515 -162 264 -336 550 -388 635 -52 85 -102
167 -111 182 -9 16 -18 28 -21 28 -3 0 -44 -66 -90 -147z"/>
</g>
</svg>
